<svg width="746" height="432" viewBox="0 0 746 432" fill="none" xmlns="http://www.w3.org/2000/svg">
<path d="M566.33 322.247L542.922 321.328H532.455L533.375 328.966L528.716 329.311V325.52L526.243 324.2L525.265 329.713L521.412 329.483L520.032 318.973L520.434 261.6L551.549 258.729L562.994 297.896L561.096 305.592L563.972 310.359L562.994 316.504L565.87 320.869L566.33 322.247" stroke="white" stroke-opacity="0.3" stroke-width="0.999987" stroke-miterlimit="10"/>
<path d="M157.183 315.355L159.081 334.939L160.059 359.347L160.576 370.833L165.35 371.235L170.583 374.624L172.481 377.495H173.459L175.357 374.107L178.233 375.6V376.978L175.875 377.495L174.379 378.471L174.897 379.85L175.875 380.367L177.773 379.39L179.153 377.954L180.648 376.978L183.524 378.471L184.444 380.826L186.399 382.262L189.218 384.214L191.173 387.029L191.576 388.981L196.867 389.9L197.845 397.079L195.947 396.103L193.071 392.255H191.576L190.655 389.383L188.757 388.981L188.297 388.464L187.32 385.133L185.882 383.698L183.926 382.721L182.546 385.593L183.006 387.488L184.904 388.005L186.399 388.981L184.444 392.255L183.006 391.853L181.626 389.383L179.153 387.029L178.75 383.698L176.335 381.343L172.481 379.85L170.583 378.471L167.708 376.519L161.554 374.107L157.183 373.647H151.949L150.051 373.188L146.658 368.364L144.358 367.445L141.482 367.962V369.857L141.884 372.728L140.964 373.188H138.089L134.293 376.059L132.337 377.495L129.979 376.978L130.439 374.624L132.855 373.188V370.316L133.315 366.985L132.337 366.468L129.059 370.316L126.183 373.188L124.286 376.059L123.768 376.978L125.666 377.954L125.206 379.39L121.41 382.262L118.534 385.133L113.761 388.005L108.987 389.9L105.134 391.853L102.258 393.231L100.82 390.876L102.258 388.981L105.134 387.488L109.447 384.616L111.345 382.262L112.265 379.39L112.783 377.495L110.367 376.978L110.885 375.083L108.469 375.6L107.089 374.107L105.134 374.624L103.696 375.083L102.258 377.954L99.8425 374.107L101.338 370.833L99.8425 366.009L97.0244 367.445L94.6664 362.678V358.371L92.7109 354.063L97.0244 353.087L96.5643 350.215L98.9223 348.32L108.009 349.297L109.447 348.32V342.118L108.987 341.199L104.616 341.601L104.214 339.246L100.82 341.199V338.787L96.0467 337.81L96.5643 335.456L97.9446 333.561L96.0467 331.091L98.9223 330.689L100.82 329.713H103.236L104.616 328.277L106.111 329.713L105.134 331.608L104.616 333.561L108.009 333.044L111.345 332.067L113.243 329.196L110.885 328.736L107.492 323.97L105.134 320.179V316.791L107.492 315.814L110.367 314.436L112.783 315.355L116.636 308.693L120.892 309.153L124.688 308.176L128.081 306.798L131.417 309.153L134.753 310.588L139.987 312.024L152.927 314.896L155.803 315.814L156.78 318.686L157.183 315.355" stroke="white" stroke-opacity="0.3" stroke-width="0.999987" stroke-miterlimit="10"/>
<path d="M75.9743 399.491L77.8722 397.079L76.952 394.207L74.9965 395.126L73.6162 398.514H71.2007" stroke="white" stroke-opacity="0.3" stroke-width="0.999987" stroke-miterlimit="10"/>
<path d="M88.915 393.748L87.0171 395.126" stroke="white" stroke-opacity="0.3" stroke-width="0.999987" stroke-miterlimit="10"/>
<path d="M129.059 382.262V386.11L126.643 388.005L122.33 388.981L121.41 387.029L123.308 385.593L126.183 384.617L127.103 381.745H128.541" stroke="white" stroke-opacity="0.3" stroke-width="0.999987" stroke-miterlimit="10"/>
<path d="M14.8382 372.211L11.5024 368.363" stroke="white" stroke-opacity="0.3" stroke-width="0.999987" stroke-miterlimit="10"/>
<path d="M42.0993 395.126L41.1216 395.643" stroke="white" stroke-opacity="0.3" stroke-width="0.999987" stroke-miterlimit="10"/>
<path d="M49.7486 397.998L47.333 396.619" stroke="white" stroke-opacity="0.3" stroke-width="0.999987" stroke-miterlimit="10"/>
<path d="M34.4504 391.853L31.0571 388.981" stroke="white" stroke-opacity="0.3" stroke-width="0.999987" stroke-miterlimit="10"/>
<path d="M25.8235 385.593L22.4878 383.698H22.9479" stroke="white" stroke-opacity="0.3" stroke-width="0.999987" stroke-miterlimit="10"/>
<path d="M26.801 389.901L25.3057 388.465" stroke="white" stroke-opacity="0.3" stroke-width="0.999987" stroke-miterlimit="10"/>
<path d="M188.585 240.638L187.895 243.452L190.31 246.323L191.288 250.573L192.208 252.985L190.77 256.833L185.537 260.164L185.997 261.6L183.639 264.931L183.121 267.343V274.005V280.207L200.317 292.44L208.944 298.183L219.412 305.305L250.929 308.808L264.157 223.638L201.64 213.243L198.937 227.199L197.039 229.094L193.646 226.28L190.77 228.635L189.793 240.063L188.585 240.638" stroke="white" stroke-opacity="0.3" stroke-width="0.999987" stroke-miterlimit="10"/>
<path d="M498.464 248.678L492.713 249.654L490.355 247.702L491.793 245.347L493.23 240.063L438.248 242.476L440.204 286.927L443.539 287.042L444.977 296.001L482.763 294.565L483.166 293.129L482.763 287.846L483.166 282.62L486.559 276.877L490.815 271.593L488.917 266.826L492.713 263.955L493.633 261.026L497.084 257.81L498.982 250.573L498.464 248.678" stroke="white" stroke-opacity="0.3" stroke-width="0.999987" stroke-miterlimit="10"/>
<path d="M183.121 274.005V267.343L183.639 264.931L185.997 261.6L185.537 260.164L190.77 256.833L192.208 252.985L191.288 250.573L190.31 246.323L187.895 243.452L189.735 239.834L159.253 195.153L141.079 165.518L152.697 122.216L106.629 110.442L104.558 111.821L105.536 114.692V116.587L99.2672 127.097L96.9092 130.945V136.688L99.2672 139.56L99.7848 148.576L98.8646 156.215L100.245 162.475L103.121 167.241L103.638 174.88H108.412L108.872 172.984L111.287 173.961V175.856L109.332 176.832L108.872 179.187V181.082L106.916 180.623L104.558 183.954L107.434 187.342L110.31 194.004L108.872 196.876L106.916 198.771L110.31 207.385L112.208 211.233L114.566 217.378L116.981 222.662V227.486L116.061 231.277L115.543 232.253L119.857 233.631L122.215 236.503L125.091 236.043L127.506 236.503L129.864 238.398L130.842 240.867L131.762 243.682L135.615 244.141L138.951 246.094L140.389 247.989L142.804 251.377L144.702 254.191L146.6 257.063L149.476 257.522L149.936 258.499L150.914 261.37L151.374 266.137L151.834 269.927L154.71 272.397L157.585 272.799L160.461 273.316L169.03 275.268L175.299 276.187L179.555 275.67L183.121 274.005" stroke="white" stroke-opacity="0.3" stroke-width="0.999987" stroke-miterlimit="10"/>
<path d="M271.173 161.729L327.651 167.931L350.886 169.884L347.435 231.162L334.61 230.818L264.329 223.811L271.173 161.729" stroke="white" stroke-opacity="0.3" stroke-width="0.999987" stroke-miterlimit="10"/>
<path d="M694.871 129.222V121.124L675.087 127.901L674.972 140.536L674.339 149.667L676.697 142.833L678.652 139.559L685.784 133.816L690.097 132.84L694.353 131.921L694.871 129.222" stroke="white" stroke-opacity="0.3" stroke-width="0.999987" stroke-miterlimit="10"/>
<path d="M674.684 179.301L670.715 179.703L665.654 176.2L664.504 171.433L661.916 163.565L656.51 164.886L660.938 183.264H671.003L674.684 179.301Z" stroke="white" stroke-opacity="0.3" stroke-width="0.999987" stroke-miterlimit="10"/>
<path d="M559.601 334.48L553.907 332.068L548.673 328.737L543.382 328.277L537.631 331.608H533.662L533.375 328.966L532.455 321.328H542.922L566.215 322.247L566.617 325.463L602.563 325.291L603.656 326.554H605.668L604.518 315.585L613.548 316.734L615.561 323.453L620.334 332.068L623.21 338.787L630.859 351.192L633.735 358.371L639.429 366.985L642.764 371.752L643.282 383.698L641.787 389.9L640.866 392.772L640.406 395.127L635.633 398.515H632.239L629.881 396.62L628.444 393.748L625.568 390.877L621.312 387.029L616.538 384.215V380.826L614.123 377.955V373.647L610.787 374.624L606.934 371.235L604.518 368.364L605.036 365.492L606.014 362.678L605.496 358.371L603.598 359.347L602.16 361.702L601.7 354.064L602.16 348.32L601.24 343.554L595.949 340.223L590.715 336.834L586.402 334.48L581.168 332.068L575.417 329.713L573.519 332.584L570.643 335.456L565.87 334.939L559.601 334.48" stroke="white" stroke-opacity="0.3" stroke-width="0.999987" stroke-miterlimit="10"/>
<path d="M612.167 291.693L609.809 288.362L606.014 282.619L599.342 274.005L594.051 273.545L587.322 264.931L584.964 262.576L581.628 262.059L579.27 259.705L581.168 255.34L565.87 257.292L551.549 258.728L562.994 297.896L561.096 305.592L563.972 310.358L563.051 316.446L565.639 319.834L566.847 325.807L567.365 325.463L602.62 325.29L603.943 326.669H605.553L604.518 315.585L613.663 316.791L612.167 312.943L613.145 303.409L615.043 302.433L616.021 300.538L613.145 300.078L622.29 293.416L616.826 290.775L612.167 291.693" stroke="white" stroke-opacity="0.3" stroke-width="0.999987" stroke-miterlimit="10"/>
<path d="M271.576 380.883L273.474 378.988L271.576 376.519H266.745L266.285 378.988L271.058 380.366L271.576 380.883Z" stroke="white" stroke-opacity="0.3" stroke-width="0.999987" stroke-miterlimit="10"/>
<path d="M301.195 389.498L295.904 387.546L291.59 385.65L293.028 389.9L295.904 393.289L297.802 396.16L301.195 394.265L301.598 391.393L300.677 390.417L301.195 389.498" stroke="white" stroke-opacity="0.3" stroke-width="0.999987" stroke-miterlimit="10"/>
<path d="M309.764 401.903L314.538 402.879L315.976 405.234L318.794 408.048L322.187 409.541L321.67 412.872L316.896 415.284L314.02 417.639L310.742 417.18L309.247 420.051L306.371 420.511L304.013 416.663L303.553 410.001L302.115 407.646L304.013 402.879L306.371 400.927L309.764 401.903" stroke="white" stroke-opacity="0.3" stroke-width="0.999987" stroke-miterlimit="10"/>
<path d="M229.937 374.624L229.477 375.141" stroke="white" stroke-opacity="0.3" stroke-width="0.999987" stroke-miterlimit="10"/>
<path d="M248.111 372.269L250.526 369.857L249.548 367.962L247.133 366.985L242.359 367.962L240.461 370.833L243.855 371.293L244.257 372.728L247.651 372.269H250.009H248.111" stroke="white" stroke-opacity="0.3" stroke-width="0.999987" stroke-miterlimit="10"/>
<path d="M237.586 371.752L234.71 373.647" stroke="white" stroke-opacity="0.3" stroke-width="0.999987" stroke-miterlimit="10"/>
<path d="M289.175 386.626L283.999 383.755" stroke="white" stroke-opacity="0.3" stroke-width="0.999987" stroke-miterlimit="10"/>
<path d="M256.105 104.298L252.424 102.46H249.088L245.753 103.436L241.439 104.355L234.71 103.436L235.688 99.5883L232.812 96.7167L231.835 92.9263L229.016 89.5953L229.477 86.7238L228.556 81.4402L227.061 82.4165L224.703 82.9334L222.805 84.3117L222.287 81.4402L223.265 74.3188L226.658 67.0825L225.163 65.7042L223.783 65.1873L221.367 62.8326L220.389 59.0422L218.031 55.1943L215.156 52.3228L214.236 47.556L214.638 38.9414L215.271 27.7425L206.989 26.0195L202.675 46.6372L199.857 58.8699L197.327 68.4034L183.121 129.223L216.306 137.55L249.664 143.58L256.105 104.298" stroke="white" stroke-opacity="0.3" stroke-width="0.999987" stroke-miterlimit="10"/>
<path d="M521.412 215.713L518.076 218.125L517.558 221.456L514.74 222.892L514.28 225.763L510.714 228.98L505.883 233L503.238 231.047L499.442 227.659L500.362 226.682L501.34 223.811L497.084 220.537L493.23 217.666L489.435 212.899V209.051L490.815 206.18L490.355 202.791L484.661 202.389L479.37 196.646L476.034 192.281L474.596 187.515L472.756 180.967L477.932 177.981L477.012 171.779L478.91 169.883L476.034 166.495L478.392 164.6L482.763 162.647L485.581 159.374L487.537 155.526L485.581 152.654L482.245 147.887L480.29 144.499L513.763 143.58L514.74 150.07L518.536 156.732L519.514 158.857L520.434 173.157L520.952 186.136L521.412 193.775L519.054 198.541L520.031 201.413L520.952 204.744L518.536 209.511L522.332 210.027L524.287 214.794L521.412 215.713" stroke="white" stroke-opacity="0.3" stroke-width="0.999987" stroke-miterlimit="10"/>
<path d="M518.537 156.732L521.412 157.708L525.726 156.215L527.164 151.965L548.673 152.654L555.345 189.927V194.234L552.469 196.129L549.651 200.436L547.696 203.308L544.36 203.767L543.382 210.946L540.046 212.899L537.631 210.429L533.375 212.382L531.477 214.277L524.288 214.794L522.332 210.027L518.537 209.51L520.952 204.744L520.032 201.413L519.054 198.541L521.412 193.774L520.952 186.136L520.435 173.157L519.514 158.857L518.537 156.732" stroke="white" stroke-opacity="0.3" stroke-width="0.999987" stroke-miterlimit="10"/>
<path d="M422.03 175.109L418.694 153.63L415.358 147.37L413.92 133.53L415.991 132.094L473.734 133.07L479.37 142.604L482.246 147.887L485.581 152.654L487.537 155.525L485.581 159.373L482.763 162.647L478.392 164.6L476.034 166.495L478.91 169.883L477.012 171.778L477.932 177.981L472.584 181.025L471.721 179.417L469.363 176.028L463.094 177.981L423.468 179.417L422.03 175.109" stroke="white" stroke-opacity="0.3" stroke-width="0.999987" stroke-miterlimit="10"/>
<path d="M438.019 201.24L436.868 200.436L433.072 193.257L435.258 191.362L434.97 189.008L349.909 185.619L347.493 231.047L438.019 234.32L438.249 203.595L438.019 201.24" stroke="white" stroke-opacity="0.3" stroke-width="0.999987" stroke-miterlimit="10"/>
<path d="M574.496 228.175L578.292 224.787L582.548 223.408L583.066 220.02L588.299 215.253L585.941 209.051L582.951 200.78L580.65 198.541L575.877 197.564L569.723 199L561.096 197.048L557.703 194.233H555.344L552.469 196.129L549.651 200.436L547.695 203.307L544.36 203.767L543.382 210.946L540.046 212.898L537.631 210.429L533.375 212.381L531.477 214.277H529.981L521.412 215.712L518.076 218.125L517.559 221.456L514.74 222.891L514.28 225.763L508.529 230.874L505.998 232.942L503.525 237.708L510.427 240.063L516.638 236.79L521.929 236.273L540.506 233.918L573.519 230.07L574.496 228.175" stroke="white" stroke-opacity="0.3" stroke-width="0.999987" stroke-miterlimit="10"/>
<path d="M504.733 332.757L503.238 325.635H500.88H479.37L478.392 318.973L481.786 314.149L482.763 310.818L487.537 307.487L485.121 302.721L482.763 294.565L444.978 296.001L445.495 299.849V311.278L450.269 317.021L452.627 322.764L453.547 328.507L452.167 333.733L449.291 338.5V341.888L449.751 345.219L455.042 343.094L460.276 345.966L467.868 346.942L474.597 345.966L481.268 345.449V348.321L486.042 350.216L491.793 354.064L493.231 350.733L497.487 351.192L499.442 349.756L501.858 349.297L508.529 351.192L511.405 354.581L513.303 353.087L514.281 350.216L512.383 349.756L509.507 346.942L506.114 344.99L508.012 342.118L510.427 340.682V337.351L507.609 338.328L505.136 342.578L504.216 340.682L505.136 337.351L503.238 336.432L500.88 337.811L495.589 336.432L501.858 334.48L507.609 335.456L504.733 332.757" stroke="white" stroke-opacity="0.3" stroke-width="0.999987" stroke-miterlimit="10"/>
<path d="M700.623 100.564L689.58 71.9062L690.558 70.2407L692.456 64.0382L693.433 56.3999L692.456 46.3496L696.252 43.0186L695.849 32.5088L699.645 30.6136L703.901 34.404L708.674 31.073L712.068 30.0967L715.921 35.3803L718.279 44.4544L718.739 51.1163L719.199 55.8831L721.097 58.2952L724.951 56.3999L726.388 59.7309L730.242 64.4977L733.117 65.474L734.498 67.3692L732.14 69.2644H727.826L721.615 75.0075L720.695 72.6528L719.717 75.5244L715.921 75.0075L716.324 80.2911L713.045 83.6221L707.294 89.8246L703.498 95.5677L702.003 103.665L700.623 100.564Z" stroke="white" stroke-opacity="0.3" stroke-width="0.999987" stroke-miterlimit="10"/>
<path d="M644.72 177.234L647.596 182.575L646.675 191.132L658.063 198.771L658.983 197.852L658.063 195.44L652.312 190.615L657.603 192.568L654.21 189.237V184.93L653.289 179.187L652.829 173.961H654.21L655.187 179.704L656.625 183.494L656.165 188.261L658.983 187.342L660.939 189.237L664.274 193.085L663.814 196.875L663.354 204.514L665.252 202.619L667.61 197.335L668.128 191.592L671.003 185.849V183.264H660.939L656.223 164.829L615.963 172.984L616.021 180.393L631.262 172.984L632.527 175.339L637.876 179.129L641.384 180.393L644.72 177.234" stroke="white" stroke-opacity="0.3" stroke-width="0.999987" stroke-miterlimit="10"/>
<path d="M702.002 109.179L683.828 110.614L674.799 111.476L675.259 127.844L694.871 121.124L698.954 122.388L701.082 124.226L705.856 126.178L707.754 124.226H711.549L715.92 122.33V119.918L712.527 116.07L714.425 118.54L713.505 121.411L709.652 120.895L708.271 118.942L704.878 115.151L702.98 109.408L702.002 109.179Z" stroke="white" stroke-opacity="0.3" stroke-width="0.999987" stroke-miterlimit="10"/>
<path d="M484.661 84.3119L497.487 87.1834L508.012 91.9502L511.405 100.565L510.887 109.409L513.303 103.666L515.201 97.521L517.156 92.2373L519.514 91.7779L522.332 95.0515L523.828 91.7779L529.061 90.2847L532.455 87.4132L537.228 87.0112L543.957 89.9401L547.983 86.6666L553.907 86.4943L555.805 85.0585L552.929 84.5416H549.133L546.258 82.187L544.36 80.7512L539.586 80.2918L539.126 77.4202L536.25 75.9845H534.755L529.579 76.9033L527.163 77.8797L523.828 79.3154L520.434 81.2681H517.156H512.382L508.989 77.4202H507.091L502.778 77.8797L501.34 75.9845L502.318 72.6535L505.136 70.7583V67.8867L501.858 69.2651L496.106 74.0318L491.333 78.856L486.559 81.6701L481.786 82.6464L484.661 84.3119" stroke="white" stroke-opacity="0.3" stroke-width="0.999987" stroke-miterlimit="10"/>
<path d="M548.616 152.597L527.163 151.965L529.982 145.303V139.043L528.084 129.969L525.208 122.79L527.163 115.152L530.499 107.054L533.835 102.287L535.273 103.666L538.609 98.899L541.024 93.6728L543.9 91.2607L548.673 91.7776L552.469 94.6491L557.3 96.5444L559.601 97.5207L560.118 104.183L560.578 109.926L558.681 114.176L556.783 118.54V122.331L559.198 122.79L560.118 120.436L560.578 117.564L563.972 115.669L568.228 114.176L569.723 115.152L570.643 119.459L572.541 122.79L573.979 125.662L575.417 129.05L571.103 133.3L570.126 137.607L567.768 139.56L566.847 144.786L563.972 149.093L564.432 151.965L561.326 151.104L548.616 152.597" stroke="white" stroke-opacity="0.3" stroke-width="0.999987" stroke-miterlimit="10"/>
<path d="M415.818 130.198L415.358 107.226L412.022 103.435L412.483 99.1281L414.898 95.3377L413.92 90.571L412.483 81.4395L411.505 73.3418L412.022 68.0581L408.227 60.9367V49.91L417.026 49.7377L429.449 49.2209L430.887 48.7614V44.4541H432.324L433.762 49.2209L435.66 53.0113L440.434 55.4234L444.23 56.3997L447.623 57.376L447.105 53.8727H457.918L455.042 56.8591L459.298 58.2949L463.611 59.7307L465.049 61.6259L478.91 62.1428L485.121 61.6259L486.559 62.1428L477.472 67.8858L468.845 74.0309L465.049 76.9025L461.714 81.9564L462.174 89.5946L462.691 90.973L458.32 94.8208L455.962 96.7161V100.104L456.422 103.952L457.4 106.307L456.422 113.945L458.32 116.817L466.487 119.229L469.363 121.124L471.261 124.972L473.619 126.35V131.634L474.136 133.07L415.818 132.093V130.198" stroke="white" stroke-opacity="0.3" stroke-width="0.999987" stroke-miterlimit="10"/>
<path d="M492.713 263.955L488.917 266.826L490.815 271.593L486.559 276.877L483.166 282.62L482.764 287.846L482.936 294.68L485.122 302.721L487.537 307.487L482.764 310.818L481.786 314.149L478.393 318.973L479.37 325.635H500.88H503.238L504.733 332.757L509.219 330.689L515.718 328.737L521.412 329.483L520.032 318.973V262.06H512.383L493.231 262.576L492.713 263.955Z" stroke="white" stroke-opacity="0.3" stroke-width="0.999987" stroke-miterlimit="10"/>
<path d="M501.858 240.58L498.465 244.428V248.678L492.713 249.655L490.355 247.702L491.793 245.347L493.231 240.064L438.249 242.476L438.019 200.953L436.868 200.436L433.072 193.372L435.258 191.247L434.855 189.065L423.468 179.417L463.094 177.981L469.363 176.028L472.584 181.025L474.597 187.514L476.035 192.281L479.37 196.646L484.661 202.389L490.355 202.791L490.815 206.179L489.435 209.051V212.899L493.231 217.666L497.084 220.537L501.34 223.811L500.362 226.682L499.442 227.659L503.583 231.219L505.941 233.057L501.858 240.58" stroke="white" stroke-opacity="0.3" stroke-width="0.999987" stroke-miterlimit="10"/>
<path d="M214.638 38.9412L214.235 47.5558L215.156 52.3225L218.031 55.1941L220.389 59.0419L221.367 62.8324L223.782 65.187L225.163 65.7039L226.658 67.0822L223.265 74.3185L222.287 81.4399L222.805 84.3115L224.703 82.9331L227.061 82.4162L228.556 81.4399L229.476 86.7235L229.016 89.5951L231.834 92.9261L232.812 96.7165L235.688 99.588L234.71 103.436L241.439 104.355L245.752 103.436L249.088 102.46H252.424L256.277 104.355L257.198 97.6928L332.769 106.537L337.658 46.2349L309.534 43.4782L287.104 41.1235L267.032 38.252L246.96 33.8873L230.224 31.0732L215.443 27.7422L214.638 38.9412" stroke="white" stroke-opacity="0.3" stroke-width="0.999987" stroke-miterlimit="10"/>
<path d="M418.694 153.63L422.03 175.281L423.64 179.474L434.682 189.007L429.334 188.72L349.908 185.619L350.886 169.883L327.938 168.045L330.354 137.435L391.95 140.249L397.702 144.499H400.577L401.958 142.603L405.753 143.58L412.022 147.887L415.818 150.242L418.694 153.63" stroke="white" stroke-opacity="0.3" stroke-width="0.999987" stroke-miterlimit="10"/>
<path d="M185.824 234.091L159.253 195.153L141.079 165.519L152.639 122.273L216.133 137.378L198.937 227.199L197.039 229.095L193.646 226.28L190.77 228.635L189.793 240.064L185.824 234.091" stroke="white" stroke-opacity="0.3" stroke-width="0.999987" stroke-miterlimit="10"/>
<path d="M702.003 109.179L701.945 103.953L689.58 71.9062L683.829 73.6292L685.784 77.4196L684.806 85.2876L682.448 90.5712V98.2095L683.829 105.848V110.557L702.003 109.179" stroke="white" stroke-opacity="0.3" stroke-width="0.999987" stroke-miterlimit="10"/>
<path d="M664.274 170.342L661.859 165.116L664.274 162.245L666.23 156.961L660.938 155.008V151.218L662.836 140.249L661.456 138.354L672.901 143.12L674.799 144.786L674.281 150.529L677.675 152.424V159.603L675.777 165.346L671.003 172.467L664.274 171.548V170.342" stroke="white" stroke-opacity="0.3" stroke-width="0.999987" stroke-miterlimit="10"/>
<path d="M282.043 307.143L261.281 305.592L260.648 309.842L250.986 308.866L264.157 223.639L334.553 230.818L334.725 239.03L329.837 307.947L282.503 304.616L282.043 307.143" stroke="white" stroke-opacity="0.3" stroke-width="0.999987" stroke-miterlimit="10"/>
<path d="M606.014 134.505L605.496 139.732H609.292L653.807 130.715L661.456 138.353L674.799 144.154L675.202 127.614L674.799 111.591L667.61 97.6923L666.23 82.9326L658.063 83.6218L650.931 85.0576L646.158 87.4122L638.509 97.922L638.969 105.158L639.889 109.925L636.093 111.303L633.217 114.175L627.984 115.668L619.817 116.07L609.81 118.54V123.766L612.685 127.097L609.81 129.968L606.014 134.276V134.505Z" stroke="white" stroke-opacity="0.3" stroke-width="0.999987" stroke-miterlimit="10"/>
<path d="M666.632 215.253H663.814L647.078 219.044L626.546 223.811L608.371 224.787L603.483 225.534L598.364 228.75L590.197 233.918L586.402 237.192H583.066L581.168 241.557L575.877 244.83L572.023 246.783L569.205 248.678L567.25 254.421L566.33 257.063L583.066 254.938L587.322 251.09H592.613L607.911 249.654L610.787 252.067L627.006 251.55L642.304 262.059L643.742 262.806L645.18 261.37L649.033 260.394V257.063L650.931 251.779L655.187 246.094L662.836 244.658L667.15 241.27L665.712 238.915L660.478 240.351L662.836 237.479L663.354 234.608L658.063 233.631L660.938 232.712L666.229 234.148L668.587 230.76L671.003 226.969L674.281 228.405L673.361 235.124L675.259 232.253L675.777 228.405L670.485 221.226L667.15 221.743L664.274 224.615L659.961 225.534L659.5 223.121L662.836 223.638L667.15 220.25L669.048 218.355L668.587 214.507L666.632 215.253Z" stroke="white" stroke-opacity="0.3" stroke-width="0.999987" stroke-miterlimit="10"/>
<path d="M413.92 90.5713L412.482 81.4398L411.505 73.3421L412.022 68.0584L408.226 60.937V49.9103L391.72 49.2211L373.661 48.532L355.315 47.5557L337.601 46.3496L334.092 92.4665L414.208 96.1421L413.92 90.5713" stroke="white" stroke-opacity="0.3" stroke-width="0.999987" stroke-miterlimit="10"/>
<path d="M584.446 194.693L589.737 186.136L595.489 183.264L598.825 177.004L599.342 163.623L597.099 140.479L594.051 142.833L584.446 149.093L580.65 151.448L576.395 153.86L574.899 151.965H572.024L567.768 152.424L563.972 151.965L561.556 151.218L548.673 152.654L555.345 189.926V194.234H557.703L561.096 197.048L569.723 199L575.877 197.565L580.305 198.426L582.951 200.838L584.446 194.693" stroke="white" stroke-opacity="0.3" stroke-width="0.999987" stroke-miterlimit="10"/>
<path d="M334.553 230.702L438.019 234.263L439.744 285.951L436.351 285.491L432.555 282.103L427.321 281.701L423.008 283.079L415.819 283.596L411.045 283.079L406.731 283.596L403.856 281.701H400.578L395.804 282.103L393.849 280.207L391.951 278.829L387.177 278.312L383.381 276.876L379.988 274.981L376.652 273.545L371.361 272.569L371.879 239.604L334.61 239.144L334.553 230.702" stroke="white" stroke-opacity="0.3" stroke-width="0.999987" stroke-miterlimit="10"/>
<path d="M126.068 50.6574L123.71 53.0121V58.2957L118.937 65.4746L118.419 68.8055L119.339 71.1602L116.981 73.6297L115.543 76.5013L115.083 81.67L112.668 85.5179L110.31 87.0111L111.69 89.3657L107.434 91.261L106.514 95.5683L105.536 98.8992L106.916 99.8756L105.019 102.747V107.054L106.801 110.443L152.812 122.216L183.006 129.338L196.061 74.8932L197.442 68.461L191.288 68.0589L186.514 67.0826L181.741 66.1637L173.574 65.7043L171.216 66.6806L166.902 65.1874L164.027 65.7043H159.771L155.4 64.2685L153.042 64.728L151.604 63.8091L148.728 62.8327L144.875 63.8091H139.181L136.306 59.0423L137.743 52.3229L136.823 50.4277L129.174 48.0156L126.068 50.6574" stroke="white" stroke-opacity="0.3" stroke-width="0.999987" stroke-miterlimit="10"/>
<path d="M660.478 164.14L602.16 175.627L596.869 141.226L606.014 134.506L605.496 139.732H609.292L653.807 130.716L661.111 137.952L662.837 140.249L660.939 151.219V155.009L666.23 156.962L664.274 162.245L660.478 164.14" stroke="white" stroke-opacity="0.3" stroke-width="0.999987" stroke-miterlimit="10"/>
<path d="M694.871 129.222V121.124L696.251 121.583L699.127 122.56L701.083 124.225L700.623 129.968L699.127 131.921H694.354L694.871 129.222Z" stroke="white" stroke-opacity="0.3" stroke-width="0.999987" stroke-miterlimit="10"/>
<path d="M642.304 262.059L627.006 251.549L610.787 252.066L607.911 249.654L592.613 251.09H587.322L583.066 254.938L581.168 255.34L579.27 259.705L581.628 262.059L584.964 262.576L587.322 264.931L594.051 273.545L599.342 274.005L606.013 282.62L609.809 288.363L612.167 291.694L617.056 290.775L622.405 293.474L620.679 289.626L618.896 287.157H620.334L624.59 286.18V283.309L627.006 282.907L630.341 281.413L632.239 276.647L636.093 275.268V272.397L638.508 266.137L643.742 262.691L642.304 262.059" stroke="white" stroke-opacity="0.3" stroke-width="0.999987" stroke-miterlimit="10"/>
<path d="M415.819 150.242L412.023 147.887L405.754 143.58L401.958 142.604L400.578 144.499H397.702L391.951 140.249L330.527 137.205L334.093 92.4668L413.403 96.3147L412.483 99.1288L412.023 103.436L415.358 107.226L415.819 130.199V132.611L413.921 133.53L415.358 147.371L418.694 153.63L415.819 150.242Z" stroke="white" stroke-opacity="0.3" stroke-width="0.999987" stroke-miterlimit="10"/>
<path d="M512.383 262.059L520.377 261.6L566.1 257.063L567.25 254.421L569.205 248.678L572.024 246.783L575.877 244.83L581.168 241.557L583.066 237.192H586.402L590.198 233.918L603.368 225.591L593.591 227.199L573.519 230.07L540.506 233.918L521.93 236.273L516.639 236.79L510.715 240.121L503.756 237.709L498.465 244.428L498.982 250.573L497.027 257.752L493.864 260.738L493.173 262.346L499.442 262.519L512.383 262.059" stroke="white" stroke-opacity="0.3" stroke-width="0.999987" stroke-miterlimit="10"/>
<path d="M445.898 345.966L441.642 348.837L438.766 346.425V344.07L435.43 345.966L436.868 348.837L435.89 351.192L432.094 355.959L426.343 359.347L420.649 362.219L415.818 361.702L412.483 361.242L413.403 363.597L415.358 365.492L414.898 367.445L409.147 368.364L406.271 369.857L406.731 371.752L405.351 373.647L402.475 374.107V376.519L400.98 379.85L398.162 381.343L397.702 383.698H401.498L402.475 386.569L400.577 390.36L401.958 393.231L402.935 398.974L402.475 402.765L403.396 404.947L395.804 402.765L387.637 401.386L383.381 399.491L377.112 393.748L374.237 386.569L370.441 379.39L369.003 374.107L365.667 370.833L363.309 368.364L360.894 365.492V361.242L358.018 357.854V354.063L354.165 350.732L349.909 347.344L346.515 344.07L339.844 343.094L333.172 341.199L328.399 343.094L327.421 349.756L325.063 351.709L322.187 353.087L317.414 350.216L310.742 344.989L307.349 341.199L305.969 334.48L301.598 328.277L301.195 324.429L293.949 319.203L293.028 316.331L287.277 310.071L281.986 307.085L282.331 304.73L329.837 307.947L334.61 239.145L371.879 239.604L371.361 272.569L376.652 273.546L379.988 274.981L383.381 276.877L387.177 278.312L391.951 278.829L393.848 280.207L395.804 282.103L400.577 281.701H403.856L406.731 283.596L411.045 283.079L415.818 283.596L423.007 283.079L427.321 281.701L432.555 282.103L436.35 285.491L439.744 285.951L443.54 287.386L445.495 299.849V311.278L450.269 317.021L452.627 322.764L453.547 328.507L452.167 333.733L449.291 338.5V341.888L449.751 345.219L445.898 345.966" stroke="white" stroke-opacity="0.3" stroke-width="0.999987" stroke-miterlimit="10"/>
<path d="M685.496 79.4297L684.806 85.2876L682.448 90.5713V98.2095L683.829 105.848L683.771 110.672L674.626 111.533L667.61 97.6927L666.229 82.933L685.496 79.4297" stroke="white" stroke-opacity="0.3" stroke-width="0.999987" stroke-miterlimit="10"/>
<path d="M640.464 180.622L644.72 177.234L647.596 182.575L646.675 191.132L650.931 194.98L656.625 200.723L659.501 203.594L657.085 204.973H651.852L656.625 207.844L662.376 209.28L666.23 210.716L668.588 214.506L663.814 215.253L647.078 219.043L626.546 223.81L608.372 224.786L593.591 227.199L573.519 230.07L574.497 228.175L578.293 224.786L582.549 223.408L583.066 220.02L588.3 215.253L590.198 215.712L596.869 217.148L602.16 215.253L607.394 211.405L610.787 207.155L612.685 199.919L615.043 195.669L617.919 192.281L621.715 192.798L622.693 189.409L624.59 185.159L628.961 178.899L631.78 174.649L638.969 179.876L641.384 180.392L640.464 180.622" stroke="white" stroke-opacity="0.3" stroke-width="0.999987" stroke-miterlimit="10"/>
<path d="M147.578 23.3774L148.038 25.3301L145.162 28.7185L142.804 31.992L142.287 34.4041L142.804 36.3568V38.252L146.14 37.2756L147.578 34.8636L149.936 32.5089L150.454 28.7185L150.914 24.8706H148.556L148.038 22.4585L148.958 20.5633L151.374 17.6918V12.4656L154.71 11.4893L170.986 15.7391L182.431 19.587L199.167 23.8943L206.931 26.0192L199.857 59.0419L198.88 63.2918L197.384 68.4605L191.288 68.0585L186.514 67.0822L181.741 66.1633L173.574 65.7038L171.216 66.6802L166.902 65.187L164.027 65.7038H159.771L155.4 64.2681L153.042 64.7275L151.604 63.8086L148.728 62.8323L144.875 63.8086H139.181L136.306 59.0419L137.743 52.3225L136.823 50.4273L130.842 48.4172L127.966 45.8903V41.5829L129.864 36.7588L127.966 34.8636L128.886 28.2016L126.528 19.587L130.842 12.4656L138.491 20.1039L142.287 19.1275V21.4822L147.06 22.4585L147.578 23.3774" stroke="white" stroke-opacity="0.3" stroke-width="0.999987" stroke-miterlimit="10"/>
<path d="M517.156 92.2368L515.201 97.5204L513.303 103.666L510.887 109.409V111.821L513.763 107.054L517.559 102.747L519.514 100.335L517.559 104.642L515.661 108.949L513.763 116.071L514.281 120.895L513.303 128.074V136.688L514.281 141.455L513.763 143.58L480.29 144.499L479.37 142.604L475.402 136.056L473.791 132.611L473.619 126.351L471.261 124.972L469.363 121.124L466.487 119.229L458.32 116.817L456.423 113.946L457.4 106.307L456.423 103.953L455.962 100.105V96.7164L458.32 94.8212L462.691 90.9733L462.174 89.595L461.714 81.9567L463.612 81.6696L468.385 81.2676L472.239 80.2912L475.114 79.7744L476.034 78.8555L477.472 81.6696L481.786 82.6459L486.559 81.6696L484.661 84.3114L497.487 87.1829L508.012 91.9497L511.405 100.564L517.156 92.2368Z" stroke="white" stroke-opacity="0.3" stroke-width="0.999987" stroke-miterlimit="10"/>
<path d="M327.938 167.93L333 106.479L257.198 97.6924L247.133 158.856L295.501 164.657L327.938 167.93" stroke="white" stroke-opacity="0.3" stroke-width="0.999987" stroke-miterlimit="10"/>
<path d="M264.272 223.753L201.813 213.071L216.306 137.492L249.664 143.58L247.018 158.799L271.116 161.728L264.272 223.753Z" stroke="white" stroke-opacity="0.3" stroke-width="0.999987" stroke-miterlimit="10"/>
<path d="M585.942 209.05L588.357 215.31L596.869 217.148L602.16 215.253L607.394 211.405L610.787 207.155L612.685 199.919L615.043 195.669L617.919 192.28L621.715 192.797L622.692 189.409L624.59 185.159L628.961 178.899L631.779 174.649L638.968 179.875L641.384 180.392L637.531 177.004L631.319 173.156L616.021 180.392V172.926L602.275 175.453L599.63 161.67L598.824 177.004L595.489 183.264L589.737 186.135L584.446 194.693L583.066 200.436L585.942 209.05" stroke="white" stroke-opacity="0.3" stroke-width="0.999987" stroke-miterlimit="10"/>
</svg>
