<svg width="25" height="24" viewBox="0 0 25 24" fill="none" xmlns="http://www.w3.org/2000/svg">
<path fill-rule="evenodd" clip-rule="evenodd" d="M12.6365 0C6.15966 0 0.90918 5.37258 0.90918 12C0.90918 18.6274 6.15966 24 12.6365 24C19.1132 24 24.3637 18.6274 24.3637 12C24.3637 5.37258 19.1132 0 12.6365 0ZM12.3099 10.1689L12.2853 9.75369C12.2115 8.67749 12.8595 7.6945 13.8849 7.31317C14.2622 7.17759 14.902 7.16064 15.3204 7.27927C15.4845 7.33012 15.7962 7.4996 16.0176 7.65213L16.4196 7.93177L16.8625 7.78771C17.1086 7.71145 17.4368 7.58434 17.5844 7.4996C17.7239 7.42333 17.8469 7.38096 17.8469 7.40638C17.8469 7.55044 17.5434 8.04194 17.2891 8.3131C16.9446 8.69444 17.043 8.72833 17.7403 8.47411C18.1586 8.33005 18.1668 8.33005 18.0848 8.49106C18.0356 8.5758 17.7813 8.87239 17.5106 9.14356C17.0512 9.60963 17.0266 9.66047 17.0266 10.0503C17.0266 10.6519 16.7477 11.9061 16.4688 12.5925C15.952 13.8805 14.8446 15.211 13.7372 15.8804C12.1787 16.821 10.1033 17.0583 8.35607 16.5075C7.77365 16.3211 6.77289 15.8465 6.77289 15.7618C6.77289 15.7363 7.0764 15.7025 7.44554 15.694C8.21662 15.677 8.98769 15.4567 9.64393 15.0669L10.0869 14.7957L9.57831 14.6178C8.85645 14.3636 8.20841 13.7788 8.04435 13.228C7.99513 13.0501 8.01154 13.0416 8.47091 13.0416L8.94668 13.0331L8.54473 12.8382C8.06896 12.5925 7.6342 12.1773 7.42093 11.7536C7.26507 11.4485 7.0682 10.6774 7.12562 10.618C7.14203 10.5926 7.31429 10.6435 7.51116 10.7113C8.07716 10.9231 8.15099 10.8723 7.82287 10.5163C7.20765 9.87232 7.01898 8.91476 7.31429 8.00804L7.45374 7.60129L7.99513 8.1521C9.10254 9.26219 10.4068 9.92317 11.8997 10.1181L12.3099 10.1689Z" fill="black"/>
</svg>
