<svg width="24" height="24" viewBox="0 0 24 24" fill="none" xmlns="http://www.w3.org/2000/svg">
<path fill-rule="evenodd" clip-rule="evenodd" d="M11.7274 0C5.25137 0 0 5.50832 0 12.3037C0 17.7399 3.36025 22.3519 8.01989 23.9789C8.60599 24.0927 8.82116 23.7119 8.82116 23.387C8.82116 23.0936 8.81029 22.1243 8.80524 21.0962C5.54267 21.8405 4.85423 19.6445 4.85423 19.6445C4.32076 18.2224 3.55212 17.8442 3.55212 17.8442C2.48809 17.0806 3.63232 17.0963 3.63232 17.0963C4.80995 17.1828 5.43004 18.3642 5.43004 18.3642C6.476 20.2452 8.1735 19.7014 8.84272 19.387C8.94797 18.592 9.2519 18.0488 9.58728 17.7417C6.98247 17.4306 4.24425 16.3756 4.24425 11.6611C4.24425 10.3178 4.70237 9.22019 5.45256 8.35854C5.3308 8.04844 4.92939 6.79722 5.56617 5.10245C5.56617 5.10245 6.55096 4.77177 8.79203 6.36365C9.72749 6.09103 10.7307 5.95432 11.7274 5.94963C12.724 5.95432 13.728 6.09103 14.6652 6.36365C16.9036 4.77177 17.887 5.10245 17.887 5.10245C18.5254 6.79722 18.1237 8.04844 18.002 8.35854C18.7539 9.22019 19.2089 10.3178 19.2089 11.6611C19.2089 16.3868 16.4655 17.4273 13.8541 17.732C14.2747 18.1138 14.6495 18.8625 14.6495 20.0105C14.6495 21.6565 14.6359 22.9815 14.6359 23.387C14.6359 23.7144 14.847 24.098 15.4415 23.9772C20.0986 22.3485 23.4545 17.7381 23.4545 12.3037C23.4545 5.50832 18.204 0 11.7274 0Z" fill="#0A0808"/>
<path fill-rule="evenodd" clip-rule="evenodd" d="M4.442 17.6646C4.41618 17.726 4.32451 17.7441 4.24101 17.7021C4.15595 17.662 4.10817 17.5787 4.13575 17.5173C4.161 17.4544 4.25285 17.4371 4.33772 17.4788C4.42297 17.5192 4.47152 17.6033 4.442 17.6646Z" fill="#0A0808"/>
<path fill-rule="evenodd" clip-rule="evenodd" d="M4.91673 18.2201C4.8608 18.2745 4.75146 18.2492 4.67728 18.1632C4.60057 18.0774 4.5862 17.9627 4.64291 17.9075C4.70058 17.8531 4.80662 17.8786 4.88352 17.9644C4.96023 18.0512 4.97518 18.1651 4.91673 18.2201Z" fill="#0A0808"/>
<path fill-rule="evenodd" clip-rule="evenodd" d="M5.37964 18.9306C5.30778 18.983 5.19029 18.9339 5.11766 18.8245C5.04581 18.7151 5.04581 18.5839 5.11922 18.5313C5.19204 18.4787 5.30778 18.526 5.38139 18.6346C5.45305 18.7456 5.45305 18.877 5.37964 18.9306Z" fill="#0A0808"/>
<path fill-rule="evenodd" clip-rule="evenodd" d="M6.01223 19.6141C5.94795 19.6885 5.81103 19.6685 5.71083 19.567C5.60829 19.4678 5.57974 19.327 5.64422 19.2526C5.70927 19.1781 5.84696 19.1991 5.94795 19.2997C6.04971 19.3987 6.08078 19.5405 6.01223 19.6141Z" fill="#0A0808"/>
<path fill-rule="evenodd" clip-rule="evenodd" d="M6.88655 20.0109C6.8582 20.1073 6.72634 20.1511 6.5935 20.1101C6.46086 20.068 6.37406 19.9551 6.40086 19.8577C6.42843 19.7607 6.56088 19.7151 6.69468 19.7589C6.82713 19.8009 6.91413 19.9129 6.88655 20.0109Z" fill="#0A0808"/>
<path fill-rule="evenodd" clip-rule="evenodd" d="M7.84623 20.0868C7.84954 20.1883 7.7369 20.2724 7.59746 20.274C7.45725 20.2775 7.34384 20.1954 7.34229 20.0956C7.34229 19.9931 7.4524 19.9097 7.59261 19.9073C7.73204 19.9044 7.84623 19.9859 7.84623 20.0868Z" fill="#0A0808"/>
<path fill-rule="evenodd" clip-rule="evenodd" d="M8.73927 19.9268C8.75597 20.0258 8.65906 20.1275 8.5206 20.1544C8.38446 20.1807 8.25843 20.1196 8.24114 20.0214C8.22425 19.9199 8.3229 19.8182 8.45884 19.7919C8.5975 19.7667 8.72159 19.8262 8.73927 19.9268Z" fill="#0A0808"/>
</svg>
