<svg width="24" height="24" viewBox="0 0 24 24" fill="none" xmlns="http://www.w3.org/2000/svg">
<path fill-rule="evenodd" clip-rule="evenodd" d="M12.1819 0C5.70507 0 0.45459 5.37258 0.45459 12C0.45459 18.6274 5.70507 24 12.1819 24C18.6587 24 23.9091 18.6274 23.9091 12C23.9091 5.37258 18.6587 0 12.1819 0ZM6.08453 9.93864H8.74218V18.1095H6.08453V9.93864ZM8.91707 7.41131C8.89982 6.61016 8.33994 5.99996 7.43077 5.99996C6.5216 5.99996 5.92722 6.61016 5.92722 7.41131C5.92722 8.19586 6.50404 8.82363 7.39627 8.82363H7.41326C8.33994 8.82363 8.91707 8.19586 8.91707 7.41131ZM15.2671 9.74726C17.016 9.74726 18.3271 10.9153 18.3271 13.4251L18.327 18.11H15.6694V13.7386C15.6694 12.6406 15.2849 11.8913 14.3228 11.8913C13.5885 11.8913 13.1512 12.3964 12.9591 12.8843C12.8889 13.0591 12.8716 13.3027 12.8716 13.5469V18.1102H10.2136C10.2136 18.1102 10.2487 10.7061 10.2136 9.93935H12.8716V11.0967C13.2243 10.5403 13.8561 9.74726 15.2671 9.74726Z" fill="black"/>
</svg>
